<?xml version="1.0" encoding="utf-8"?>
<!-- Generator: Adobe Illustrator 16.0.0, SVG Export Plug-In . SVG Version: 6.00 Build 0)  -->
<!DOCTYPE svg PUBLIC "-//W3C//DTD SVG 1.1//EN" "http://www.w3.org/Graphics/SVG/1.1/DTD/svg11.dtd">
<svg version="1.1" id="Calque_1" xmlns="http://www.w3.org/2000/svg" xmlns:xlink="http://www.w3.org/1999/xlink" x="0px" y="0px"
	 width="300px" height="100px" viewBox="0 0 300 100" enable-background="new 0 0 300 100" xml:space="preserve">
<path fill="#004A98" d="M11.573,43.936c0.009-1.658-0.515-3.276-1.497-4.614c-0.96-1.363-2.327-2.391-3.907-2.937
	c0.868-0.324,1.787-0.486,2.713-0.478c1.183-0.02,2.354,0.227,3.429,0.719c1.073,0.494,2.021,1.223,2.774,2.133
	c2.015-1.873,4.673-2.894,7.423-2.853c1.547-0.029,3.083,0.282,4.497,0.912c1.412,0.63,2.669,1.561,3.68,2.728l0.48-0.508
	c1.003-1.019,2.204-1.822,3.527-2.36c1.327-0.538,2.747-0.803,4.181-0.772c1.434-0.026,2.858,0.24,4.187,0.779
	c1.326,0.538,2.531,1.339,3.541,2.354c1.028,0.97,1.844,2.144,2.394,3.446c0.549,1.3,0.821,2.701,0.799,4.113v18.727
	c0,0.72-0.288,1.409-0.799,1.918c-0.512,0.511-1.206,0.797-1.929,0.797s-1.418-0.286-1.93-0.797
	c-0.51-0.509-0.798-1.198-0.798-1.918V46.573c0.013-0.708-0.119-1.41-0.393-2.063c-0.274-0.654-0.682-1.242-1.196-1.729
	c-2.162-2.068-5.568-2.068-7.729,0c-0.512,0.489-0.915,1.079-1.186,1.731c-0.271,0.651-0.402,1.354-0.388,2.06v18.617H33.42
	l0.026,0.129c0.001,0.493-0.137,0.976-0.398,1.393c-0.479,0.837-1.381,1.34-2.346,1.304c-0.369,0.052-0.745,0.02-1.099-0.096
	c-0.354-0.116-0.674-0.314-0.938-0.576c-0.264-0.262-0.463-0.582-0.582-0.933c-0.118-0.351-0.152-0.727-0.1-1.094V46.564
	c0.016-0.708-0.117-1.41-0.391-2.063c-0.273-0.654-0.682-1.243-1.197-1.73c-2.176-2.068-5.592-2.068-7.77,0
	c-1.043,0.981-1.621,2.36-1.588,3.791v18.753c0,0.722-0.288,1.413-0.8,1.92c-0.511,0.511-1.206,0.798-1.931,0.798
	c-0.725,0-1.418-0.287-1.93-0.798c-0.512-0.507-0.799-1.198-0.8-1.92l-0.009-21.379H11.573z M62.296,57.322v2.663
	c-0.009,1.677,0.514,3.311,1.492,4.672c0.979,1.361,2.366,2.38,3.961,2.912c-0.874,0.299-1.788,0.457-2.712,0.471
	c-1.078,0.021-2.149-0.176-3.15-0.576c-0.999-0.401-1.907-1.002-2.667-1.763c-0.771-0.737-1.383-1.626-1.794-2.609
	c-0.411-0.982-0.613-2.041-0.594-3.106V46.606c-0.026-1.413,0.246-2.816,0.792-4.121c0.548-1.305,1.362-2.483,2.39-3.457
	c2.077-2.002,4.85-3.119,7.735-3.116c2.885,0.001,5.656,1.124,7.728,3.133c1.03,0.969,1.846,2.142,2.397,3.444
	c0.55,1.3,0.822,2.702,0.799,4.113v5.356c0.013,0.709-0.118,1.413-0.393,2.066c-0.275,0.655-0.682,1.247-1.196,1.737
	c-0.506,0.506-1.109,0.902-1.774,1.17c-0.665,0.269-1.377,0.399-2.094,0.387L62.296,57.322z M73.217,46.597
	c0.014-0.708-0.12-1.411-0.395-2.063c-0.275-0.653-0.684-1.241-1.201-1.728c-2.167-2.068-5.577-2.068-7.743,0
	c-0.513,0.49-0.919,1.078-1.191,1.731s-0.406,1.354-0.391,2.062v5.522c-0.048,0.35-0.012,0.706,0.104,1.04
	c0.114,0.334,0.305,0.639,0.558,0.887c0.512,0.502,1.23,0.737,1.942,0.635h5.704c0.713,0.105,1.433-0.129,1.947-0.632
	c0.254-0.248,0.446-0.553,0.561-0.888c0.116-0.336,0.151-0.692,0.105-1.044V46.597L73.217,46.597z M85.03,38.57
	c0.001-0.72,0.289-1.411,0.8-1.919c0.511-0.509,1.206-0.794,1.928-0.794c0.724,0,1.418,0.287,1.93,0.794
	c0.511,0.508,0.798,1.199,0.799,1.919v18.752c-0.016,0.709,0.117,1.415,0.388,2.07c0.27,0.659,0.675,1.251,1.187,1.744
	c1.048,0.992,2.439,1.545,3.883,1.541c1.444-0.003,2.833-0.559,3.878-1.553c0.513-0.491,0.919-1.084,1.192-1.739
	c0.274-0.654,0.41-1.355,0.398-2.064V38.57c0.001-0.722,0.289-1.412,0.8-1.92c0.512-0.51,1.206-0.796,1.931-0.796
	c0.725,0,1.417,0.286,1.931,0.796c0.511,0.509,0.798,1.199,0.798,1.92l-0.022,0.156h0.022V81.43
	c0.019,1.066-0.185,2.125-0.598,3.109c-0.411,0.982-1.024,1.871-1.798,2.61c-0.76,0.757-1.666,1.357-2.664,1.76
	c-0.998,0.403-2.067,0.603-3.143,0.585c-0.925-0.003-1.843-0.157-2.718-0.456c1.588-0.56,2.968-1.59,3.955-2.954
	c0.995-1.34,1.525-2.968,1.512-4.635V66.584c-1.66,0.963-3.547,1.468-5.465,1.461c-1.434,0.028-2.858-0.235-4.187-0.772
	c-1.328-0.536-2.533-1.338-3.541-2.355c-1.03-0.974-1.846-2.153-2.395-3.46c-0.549-1.307-0.819-2.712-0.795-4.128V38.57H85.03z
	 M135.825,57.306c0.045,2.861-1.106,5.614-3.177,7.589c-4.314,4.172-11.16,4.172-15.474,0c-1.028-0.977-1.843-2.154-2.393-3.462
	c-0.548-1.306-0.819-2.711-0.794-4.127V46.591c-0.025-1.415,0.246-2.817,0.794-4.122c0.55-1.305,1.364-2.481,2.393-3.455
	c1.013-1.011,2.221-1.808,3.55-2.344c1.33-0.536,2.754-0.798,4.188-0.771c1.914-0.003,3.795,0.494,5.457,1.441V22.525
	c0.013-1.663-0.515-3.286-1.504-4.622c-0.983-1.361-2.363-2.391-3.952-2.95c0.873-0.3,1.79-0.451,2.712-0.446
	c1.075-0.021,2.145,0.176,3.143,0.578c0.997,0.401,1.904,1,2.663,1.762c0.771,0.73,1.383,1.613,1.797,2.592
	c0.413,0.979,0.616,2.032,0.598,3.093l0.001,34.777L135.825,57.306z M124.911,41.238c-0.718-0.016-1.432,0.112-2.098,0.379
	c-0.667,0.264-1.272,0.664-1.781,1.169c-0.512,0.489-0.917,1.08-1.19,1.734s-0.405,1.358-0.39,2.066V57.31
	c-0.019,0.711,0.112,1.418,0.383,2.076c0.271,0.658,0.677,1.255,1.192,1.749c2.175,2.063,5.584,2.056,7.752-0.015
	c0.515-0.489,0.923-1.082,1.198-1.738c0.273-0.657,0.407-1.361,0.393-2.072V46.586c0.029-1.434-0.548-2.814-1.589-3.801
	c-0.506-0.505-1.11-0.902-1.774-1.166c-0.665-0.265-1.377-0.393-2.092-0.375v-0.007L124.911,41.238z M164.658,59.979
	c-0.018,1.674,0.5,3.308,1.48,4.668c0.967,1.372,2.352,2.395,3.951,2.917c-0.875,0.298-1.789,0.456-2.715,0.47
	c-1.189,0.028-2.371-0.216-3.451-0.715s-2.031-1.237-2.779-2.162c-2.008,1.868-4.658,2.896-7.408,2.874
	c-1.434,0.029-2.859-0.235-4.19-0.771c-1.329-0.538-2.534-1.341-3.544-2.355c-1.027-0.979-1.838-2.161-2.385-3.463
	c-0.547-1.307-0.817-2.714-0.793-4.127V46.602c-0.024-1.412,0.245-2.813,0.789-4.117c0.548-1.305,1.358-2.482,2.383-3.457
	c2.072-2,4.845-3.118,7.733-3.114c2.883,0.001,5.652,1.124,7.723,3.131c1.033,0.969,1.848,2.143,2.4,3.444
	c0.551,1.301,0.822,2.704,0.799,4.115L164.658,59.979z M153.738,41.248c-0.717-0.016-1.43,0.112-2.096,0.379
	c-0.664,0.265-1.268,0.664-1.774,1.169c-0.515,0.488-0.921,1.078-1.194,1.733c-0.273,0.653-0.406,1.357-0.391,2.065v10.728
	c-0.017,0.709,0.113,1.413,0.383,2.071c0.27,0.659,0.67,1.256,1.178,1.754c1.053,0.992,2.443,1.545,3.89,1.543
	s2.84-0.56,3.885-1.555c0.514-0.491,0.918-1.085,1.191-1.742c0.271-0.655,0.406-1.359,0.393-2.068V46.597
	c0.029-1.433-0.545-2.812-1.584-3.799c-0.51-0.506-1.115-0.903-1.781-1.168c-0.668-0.267-1.383-0.396-2.102-0.382H153.738z
	 M173.941,43.814c0.008-1.657-0.516-3.273-1.494-4.61c-0.965-1.364-2.328-2.392-3.906-2.94c0.865-0.323,1.785-0.485,2.713-0.478
	c1.182-0.018,2.354,0.229,3.428,0.724s2.021,1.221,2.777,2.13c4.326-3.907,10.943-3.784,15.123,0.281
	c1.029,0.971,1.842,2.144,2.395,3.446c0.549,1.301,0.824,2.702,0.803,4.114V65.22c0,0.722-0.287,1.411-0.799,1.92
	c-1.068,1.059-2.793,1.059-3.861,0c-0.512-0.509-0.799-1.198-0.799-1.92V46.467c0.014-0.707-0.121-1.41-0.393-2.063
	c-0.275-0.654-0.682-1.243-1.197-1.73c-1.041-0.993-2.43-1.549-3.873-1.549c-1.441-0.001-2.828,0.554-3.869,1.549
	c-0.518,0.486-0.924,1.076-1.197,1.73c-0.275,0.652-0.41,1.354-0.395,2.063v18.752c-0.021,0.707-0.318,1.377-0.826,1.869
	c-0.51,0.492-1.193,0.768-1.902,0.768s-1.393-0.275-1.902-0.768s-0.805-1.162-0.826-1.869l0.002-21.407V43.814z"/>
<path fill="none" d="M159.734,19.662h64.977v64.676h-64.977V19.662z"/>
<g>
	<path id="C" fill="#52AE32" d="M219.537,48.393c2.631,0,4.762-2.123,4.762-4.742c0-2.618-2.131-4.74-4.762-4.74
		c-2.629,0-4.764,2.123-4.764,4.74C214.773,46.27,216.908,48.393,219.537,48.393z"/>
</g>
<g>
	<path id="C_1_" fill="#596FA6" d="M218.861,62.589c2.631,0,4.762-2.124,4.762-4.74c0-2.62-2.131-4.742-4.762-4.742
		c-2.629,0-4.762,2.122-4.762,4.742C214.1,60.465,216.232,62.589,218.861,62.589z"/>
</g>
<path fill="#60A511" d="M246.873,37.605c-0.039-0.254-0.018-0.515,0.063-0.759c0.078-0.243,0.213-0.467,0.395-0.651
	c0.367-0.372,0.887-0.552,1.404-0.486h14.744c0.256-0.038,0.52-0.016,0.768,0.064c0.248,0.081,0.473,0.218,0.658,0.399
	c0.184,0.184,0.324,0.405,0.406,0.651c0.084,0.246,0.109,0.508,0.074,0.765v1.252c0.029,0.253,0,0.511-0.086,0.752
	c-0.174,0.488-0.566,0.867-1.063,1.022c-0.244,0.076-0.504,0.095-0.758,0.057H252.68v9.179h8.801c0.254-0.04,0.514-0.021,0.76,0.057
	c0.242,0.075,0.467,0.208,0.652,0.387c0.375,0.357,0.557,0.871,0.494,1.386v1.255c0.035,0.254,0.01,0.517-0.072,0.764
	c-0.084,0.244-0.225,0.467-0.41,0.648c-0.184,0.184-0.41,0.32-0.656,0.4c-0.248,0.082-0.51,0.104-0.768,0.066h-8.801v11.064
	c0.039,0.254,0.02,0.512-0.061,0.759c-0.252,0.761-1.006,1.237-1.799,1.138h-2.088c-0.256,0.033-0.516,0.007-0.762-0.078
	c-0.242-0.084-0.463-0.225-0.645-0.408c-0.18-0.184-0.314-0.405-0.395-0.651c-0.078-0.244-0.1-0.505-0.061-0.759l0.002-28.273
	V37.605z M268.41,65.308c-0.002-0.867,0.268-1.714,0.773-2.416l13.518-19.288l1.633-2.117c0.219-0.277,0.463-0.534,0.727-0.769
	v-0.089c-0.209,0.032-0.422,0.046-0.635,0.043c-0.258,0.033-0.512,0.048-0.77,0.045h-12.615c-0.256,0.038-0.516,0.019-0.762-0.06
	c-0.246-0.078-0.469-0.213-0.654-0.393c-0.375-0.364-0.557-0.882-0.49-1.398v-1.262c-0.033-0.257-0.01-0.52,0.074-0.768
	c0.08-0.247,0.221-0.471,0.406-0.655c0.184-0.185,0.408-0.323,0.654-0.405c0.248-0.082,0.514-0.105,0.771-0.069h19.508
	c0.254-0.036,0.512-0.012,0.752,0.067c0.242,0.081,0.463,0.216,0.643,0.395c0.182,0.18,0.316,0.399,0.398,0.639
	c0.08,0.242,0.104,0.498,0.066,0.749v0.542c0.008,0.426-0.045,0.854-0.158,1.265c-0.129,0.404-0.32,0.786-0.568,1.129
	l-13.555,19.333l-0.918,1.238l-0.75,0.879l-0.688,0.765v0.089c0.211,0,0.426-0.017,0.635-0.045l0.746-0.024
	c0.287-0.023,0.629-0.023,1.023-0.023h12.563c0.258-0.038,0.52-0.017,0.768,0.064c0.248,0.079,0.471,0.217,0.654,0.399
	c0.375,0.366,0.555,0.886,0.484,1.405v1.276c0.039,0.259,0.016,0.523-0.066,0.771c-0.08,0.248-0.219,0.475-0.404,0.659
	c-0.186,0.186-0.41,0.326-0.662,0.41c-0.248,0.085-0.512,0.107-0.773,0.073h-20.412c-0.262,0.034-0.525,0.01-0.773-0.074
	c-0.25-0.085-0.477-0.226-0.662-0.41c-0.375-0.376-0.549-0.906-0.471-1.433l-0.01-0.541V65.308z"/>
</svg>
